<svg xmlns="http://www.w3.org/2000/svg" xmlns:xlink="http://www.w3.org/1999/xlink" width="400" zoomAndPan="magnify" viewBox="0 0 300 89.999999" height="120" preserveAspectRatio="xMidYMid meet" version="1.2"><defs><clipPath id="c6b55128bb"><path d="M 26.816406 2.414062 L 273.34375 2.414062 L 273.34375 87.585938 L 26.816406 87.585938 Z M 26.816406 2.414062 "/></clipPath><clipPath id="c565d076ce"><path d="M 65.066406 2.414062 L 234.933594 2.414062 C 256.058594 2.414062 273.183594 19.539062 273.183594 40.664062 L 273.183594 49.335938 C 273.183594 70.460938 256.058594 87.585938 234.933594 87.585938 L 65.066406 87.585938 C 43.941406 87.585938 26.816406 70.460938 26.816406 49.335938 L 26.816406 40.664062 C 26.816406 19.539062 43.941406 2.414062 65.066406 2.414062 Z M 65.066406 2.414062 "/></clipPath><clipPath id="0276dcc524"><path d="M 45.144531 26.234375 L 84.136719 26.234375 L 84.136719 65.234375 L 45.144531 65.234375 Z M 45.144531 26.234375 "/></clipPath><clipPath id="918fdf6846"><path d="M 45.140625 26.234375 L 84 26.234375 L 84 65 L 45.140625 65 Z M 45.140625 26.234375 "/></clipPath></defs><g id="63964e94d0"><g clip-rule="nonzero" clip-path="url(#c6b55128bb)"><g clip-rule="nonzero" clip-path="url(#c565d076ce)"><path style=" stroke:none;fill-rule:nonzero;fill:#050a30;fill-opacity:1;" d="M 26.816406 2.414062 L 273.34375 2.414062 L 273.34375 87.585938 L 26.816406 87.585938 Z M 26.816406 2.414062 "/></g></g><g clip-rule="nonzero" clip-path="url(#0276dcc524)"><path style=" stroke:none;fill-rule:nonzero;fill:#eb100d;fill-opacity:1;" d="M 65.414062 26.234375 L 63.867188 26.234375 C 57.453125 26.234375 51.527344 29.695312 48.324219 35.308594 L 47.546875 36.667969 C 44.34375 42.28125 44.34375 49.199219 47.546875 54.816406 L 48.324219 56.171875 C 51.527344 61.785156 57.453125 65.246094 63.867188 65.246094 L 65.414062 65.246094 C 71.828125 65.246094 77.753906 61.785156 80.957031 56.171875 L 81.734375 54.816406 C 84.9375 49.199219 84.9375 42.28125 81.734375 36.667969 L 80.957031 35.308594 C 77.753906 29.695312 71.828125 26.234375 65.414062 26.234375 "/></g><g clip-rule="nonzero" clip-path="url(#918fdf6846)"><path style=" stroke:none;fill-rule:nonzero;fill:#f5f5f5;fill-opacity:1;" d="M 65 26.964844 L 64.28125 26.964844 C 57.867188 26.964844 51.945312 30.421875 48.738281 36.039062 L 48.378906 36.667969 C 45.171875 42.28125 45.171875 49.199219 48.378906 54.816406 L 48.738281 55.445312 C 51.945312 61.058594 57.867188 64.519531 64.28125 64.519531 L 65 64.519531 C 71.410156 64.519531 77.335938 61.058594 80.542969 55.445312 L 80.902344 54.816406 C 84.109375 49.199219 84.109375 42.28125 80.902344 36.667969 L 80.542969 36.039062 C 77.335938 30.421875 71.410156 26.964844 65 26.964844 Z M 65 27.554688 C 71.183594 27.554688 76.945312 30.917969 80.035156 36.332031 L 80.394531 36.960938 C 83.488281 42.378906 83.488281 49.105469 80.394531 54.519531 L 80.035156 55.148438 C 76.945312 60.5625 71.183594 63.925781 65 63.925781 L 64.28125 63.925781 C 58.097656 63.925781 52.335938 60.5625 49.242188 55.148438 L 48.886719 54.519531 C 45.792969 49.105469 45.792969 42.378906 48.886719 36.960938 L 49.242188 36.332031 C 52.335938 30.917969 58.097656 27.554688 64.28125 27.554688 L 65 27.554688 "/></g><g style="fill:#ffffff;fill-opacity:1;"><g transform="translate(95.712635, 55.304589)"><path style="stroke:none" d="M 2.828125 0 L 2.828125 -23.578125 L 7.375 -23.578125 L 15.765625 -11.359375 L 24.125 -23.578125 L 28.640625 -23.578125 L 28.640625 0 L 23.3125 0 L 23.3125 -14.1875 L 17.578125 -5.828125 L 13.875 -5.828125 L 8.15625 -14.21875 L 8.15625 0 Z M 2.828125 0 "/></g></g><g style="fill:#ffffff;fill-opacity:1;"><g transform="translate(127.174463, 55.304589)"><path style="stroke:none" d="M 2.625 6.734375 L 2.625 2.328125 L 4.65625 2.328125 C 5.707031 2.328125 6.460938 2.160156 6.921875 1.828125 C 7.378906 1.503906 7.753906 0.90625 8.046875 0.03125 L 8.25 -0.578125 L 0.296875 -17.6875 L 5.96875 -17.6875 L 10.71875 -6.734375 L 12.328125 -11.25 L 14.6875 -17.6875 L 20.171875 -17.6875 L 12.296875 2.09375 C 11.828125 3.300781 11.285156 4.238281 10.671875 4.90625 C 10.066406 5.582031 9.316406 6.054688 8.421875 6.328125 C 7.523438 6.597656 6.390625 6.734375 5.015625 6.734375 Z M 2.625 6.734375 "/></g></g><g style="fill:#ffffff;fill-opacity:1;"><g transform="translate(147.621282, 55.304589)"><path style="stroke:none" d="M 8.484375 0 L 8.484375 -18.5625 L 1.015625 -18.5625 L 1.015625 -23.578125 L 21.328125 -23.578125 L 21.328125 -18.5625 L 13.84375 -18.5625 L 13.84375 0 Z M 8.484375 0 "/></g></g><g style="fill:#ffffff;fill-opacity:1;"><g transform="translate(169.954471, 55.304589)"><path style="stroke:none" d="M 12.46875 0.46875 C 10.425781 0.46875 8.664062 0.0625 7.1875 -0.75 C 5.71875 -1.570312 4.582031 -2.738281 3.78125 -4.25 C 2.988281 -5.769531 2.59375 -7.585938 2.59375 -9.703125 L 2.59375 -23.578125 L 7.953125 -23.578125 L 7.953125 -10.078125 C 7.953125 -6.429688 9.457031 -4.609375 12.46875 -4.609375 C 15.476562 -4.609375 16.984375 -6.429688 16.984375 -10.078125 L 16.984375 -23.578125 L 22.328125 -23.578125 L 22.328125 -9.703125 C 22.328125 -7.585938 21.925781 -5.769531 21.125 -4.25 C 20.332031 -2.738281 19.203125 -1.570312 17.734375 -0.75 C 16.265625 0.0625 14.507812 0.46875 12.46875 0.46875 Z M 12.46875 0.46875 "/></g></g><g style="fill:#ffffff;fill-opacity:1;"><g transform="translate(194.881398, 55.304589)"><path style="stroke:none" d="M 2.828125 0 L 2.828125 -23.578125 L 13.375 -23.578125 C 15.78125 -23.578125 17.6875 -23.003906 19.09375 -21.859375 C 20.507812 -20.710938 21.21875 -19.175781 21.21875 -17.25 C 21.21875 -16.144531 20.96875 -15.144531 20.46875 -14.25 C 19.976562 -13.351562 19.285156 -12.644531 18.390625 -12.125 C 19.515625 -11.632812 20.382812 -10.90625 21 -9.9375 C 21.625 -8.96875 21.9375 -7.859375 21.9375 -6.609375 C 21.9375 -5.273438 21.597656 -4.113281 20.921875 -3.125 C 20.242188 -2.144531 19.304688 -1.378906 18.109375 -0.828125 C 16.910156 -0.273438 15.507812 0 13.90625 0 Z M 8.125 -4.25 L 13.109375 -4.25 C 14.160156 -4.25 14.976562 -4.492188 15.5625 -4.984375 C 16.144531 -5.484375 16.4375 -6.179688 16.4375 -7.078125 C 16.4375 -7.972656 16.144531 -8.664062 15.5625 -9.15625 C 14.976562 -9.65625 14.160156 -9.90625 13.109375 -9.90625 L 8.125 -9.90625 Z M 8.125 -13.984375 L 12.5625 -13.984375 C 13.59375 -13.984375 14.382812 -14.21875 14.9375 -14.6875 C 15.488281 -15.15625 15.765625 -15.816406 15.765625 -16.671875 C 15.765625 -17.523438 15.488281 -18.179688 14.9375 -18.640625 C 14.382812 -19.109375 13.59375 -19.34375 12.5625 -19.34375 L 8.125 -19.34375 Z M 8.125 -13.984375 "/></g></g><g style="fill:#ffffff;fill-opacity:1;"><g transform="translate(218.090397, 55.304589)"><path style="stroke:none" d="M 2.828125 0 L 2.828125 -23.578125 L 18.328125 -23.578125 L 18.328125 -19.0625 L 8.15625 -19.0625 L 8.15625 -14.1875 L 17.421875 -14.1875 L 17.421875 -9.703125 L 8.15625 -9.703125 L 8.15625 -4.546875 L 18.703125 -4.546875 L 18.703125 0 Z M 2.828125 0 "/></g></g></g></svg>